<svg width="72" height="73" viewBox="0 0 72 73" fill="none" xmlns="http://www.w3.org/2000/svg">
<path d="M43.0117 65.3051C44.8036 65.3051 46.5955 66.4333 46.5955 68.8225C46.5955 71.1454 44.8036 72.34 43.0117 72.34C41.2198 72.34 39.4279 71.1454 39.4279 68.8225C39.4279 66.4333 41.2198 65.3051 43.0117 65.3051Z" fill="#2563EB"/>
<path d="M45.2683 59.9297H40.7553C40.158 59.9297 39.627 59.4651 39.627 58.8014V48.6472C39.627 48.0499 40.0916 47.519 40.7553 47.519H55.2234C56.0198 47.519 56.6171 46.9217 56.6171 46.1253C56.6171 45.3289 56.0198 44.7316 55.2234 44.7316H18.0577C14.2083 44.7316 10.6909 42.1433 9.89447 38.2939C8.8326 33.0509 12.8146 28.4716 17.8586 28.4716H62.9883C63.7847 28.4716 64.382 27.8743 64.382 27.0779C64.382 26.2815 63.7847 25.6842 62.9883 25.6842H9.29717C5.44786 25.6842 1.9304 23.0958 1.13399 19.2465C0.00574315 14.1362 3.98778 9.55689 9.0317 9.55689H54.2942C55.0906 9.55689 55.6879 8.95959 55.6879 8.16318C55.6879 7.36677 55.0906 6.76947 54.2942 6.76947H19.7168C19.1195 6.76947 18.5886 6.3049 18.5886 5.64122V1.12824C18.5886 0.530939 19.0532 0 19.7168 0H54.0951C57.9444 0 61.4619 2.58833 62.2583 6.43763C63.3202 11.6806 59.3381 16.26 54.2942 16.26H9.0317C8.23529 16.26 7.63798 16.8573 7.63798 17.6537C7.63798 18.4501 8.30166 19.0474 9.0317 19.0474H62.7229C66.5722 19.0474 70.0896 21.6357 70.886 25.4851C71.9479 30.7281 67.9659 35.3074 62.922 35.3074H17.7922C16.9958 35.3074 16.3985 35.9047 16.3985 36.7011C16.3985 37.4975 16.9958 38.0285 17.7922 38.0285H54.9579C58.8072 38.0285 62.3247 40.6168 63.1211 44.4661C64.1829 49.7091 60.2009 54.2885 55.157 54.2885H47.1265C46.7283 54.2885 46.3965 54.6203 46.3965 55.0185V58.8678C46.3301 59.4651 45.8656 59.9297 45.2683 59.9297Z" fill="#2563EB"/>
</svg>
